# xmcd
# Copyright (C) 1995-1998 Ti Kan
#
# Track frame offsets:
#       150
#       15075
#       27444
#       40247
#
# Disc length: 729 seconds
#
# Revision: 0
# Processed by: cddbd v1.5.2PL0 Copyright (c) Steve Scherf et al.
# Submitted via: CD-Transfer v1.0
#
DISCID=2102d704
DTITLE=Brugger Buam - 
DYEAR=09
DGENRE=
TTITLE0=Das Christkind Spricht Auch Bayrisch (09)
TTITLE1=A Besondere Zeit (09)
TTITLE2=Tief In Mir Spür I Die Staade Zeit (09)
TTITLE3=Glockenjodler (09)
EXTD=
EXTT0=
EXTT1=
EXTT2=
EXTT3=
PLAYORDER=
